<svg width="150" height="150" viewBox="0 0 150 150" fill="none" xmlns="http://www.w3.org/2000/svg">
<path d="M86.126 106.016L82.052 90.8M82.052 90.8L74.522 97.475L76.229 69.065L91.91 92.816L82.052 90.8ZM59.498 89.999C56.6202 87.1208 54.4966 83.5773 53.3153 79.6824C52.134 75.7874 51.9316 71.6613 52.7258 67.6694C53.5201 63.6775 55.2866 59.9431 57.8688 56.797C60.451 53.6509 63.7693 51.1901 67.5297 49.6327C71.2901 48.0754 75.3765 47.4694 79.427 47.8685C83.4775 48.2676 87.3671 49.6595 90.7512 51.9209C94.1353 54.1823 96.9095 57.2433 98.828 60.8329C100.746 64.4225 101.75 68.4299 101.75 72.5M65.864 83.636C64.0323 81.8046 62.6805 79.5497 61.9285 77.071C61.1764 74.5923 61.0473 71.9665 61.5525 69.426C62.0578 66.8855 63.1818 64.5088 64.825 62.5065C66.4682 60.5042 68.5799 58.9381 70.973 57.9469C73.3661 56.9557 75.9667 56.57 78.5444 56.824C81.1222 57.078 83.5975 57.9639 85.7511 59.4031C87.9047 60.8423 89.6701 62.7904 90.891 65.0749C92.1118 67.3594 92.7503 69.9098 92.75 72.5" stroke="black" stroke-width="1.5" stroke-linecap="round" stroke-linejoin="round"/>
<path d="M81.126 103.016L77.052 87.8M77.052 87.8L69.522 94.475L71.229 66.065L86.91 89.816L77.052 87.8ZM54.498 86.999C51.6202 84.1208 49.4966 80.5773 48.3153 76.6824C47.134 72.7874 46.9316 68.6613 47.7258 64.6694C48.5201 60.6775 50.2866 56.9431 52.8688 53.797C55.451 50.6509 58.7693 48.1901 62.5297 46.6327C66.2901 45.0754 70.3765 44.4694 74.427 44.8685C78.4775 45.2676 82.3671 46.6595 85.7512 48.9209C89.1353 51.1823 91.9095 54.2433 93.828 57.8329C95.7465 61.4225 96.7501 65.4299 96.75 69.5M60.864 80.636C59.0323 78.8046 57.6805 76.5497 56.9285 74.071C56.1764 71.5923 56.0473 68.9665 56.5525 66.426C57.0578 63.8855 58.1818 61.5088 59.825 59.5065C61.4682 57.5042 63.5799 55.9381 65.973 54.9469C68.3661 53.9557 70.9667 53.57 73.5444 53.824C76.1222 54.078 78.5975 54.9639 80.7511 56.4031C82.9047 57.8423 84.6701 59.7904 85.891 62.0749C87.1118 64.3594 87.7503 66.9098 87.75 69.5" stroke="#FF0000" stroke-width="1.5" stroke-linecap="round" stroke-linejoin="round"/>
</svg>
