<svg width="150" height="150" viewBox="0 0 150 150" fill="none" xmlns="http://www.w3.org/2000/svg">
<path d="M89.25 72.5V59C89.25 56.0163 88.0647 53.1548 85.955 51.045C83.8452 48.9353 80.9837 47.75 78 47.75C75.0163 47.75 72.1548 48.9353 70.045 51.045C67.9353 53.1548 66.75 56.0163 66.75 59V72.5M100.818 66.521L104.607 102.521C104.817 104.516 103.257 106.25 101.25 106.25H54.75C54.2766 106.251 53.8084 106.151 53.3758 105.959C52.9433 105.767 52.5559 105.486 52.2391 105.134C51.9222 104.783 51.6828 104.368 51.5366 103.918C51.3903 103.468 51.3403 102.992 51.39 102.521L55.182 66.521C55.2695 65.6917 55.6609 64.9241 56.2808 64.3663C56.9006 63.8084 57.7051 63.4998 58.539 63.5H97.461C99.189 63.5 100.638 64.805 100.818 66.521ZM67.875 72.5C67.875 72.7984 67.7565 73.0845 67.5455 73.2955C67.3345 73.5065 67.0484 73.625 66.75 73.625C66.4516 73.625 66.1655 73.5065 65.9545 73.2955C65.7435 73.0845 65.625 72.7984 65.625 72.5C65.625 72.2016 65.7435 71.9155 65.9545 71.7045C66.1655 71.4935 66.4516 71.375 66.75 71.375C67.0484 71.375 67.3345 71.4935 67.5455 71.7045C67.7565 71.9155 67.875 72.2016 67.875 72.5ZM90.375 72.5C90.375 72.7984 90.2565 73.0845 90.0455 73.2955C89.8345 73.5065 89.5484 73.625 89.25 73.625C88.9516 73.625 88.6655 73.5065 88.4545 73.2955C88.2435 73.0845 88.125 72.7984 88.125 72.5C88.125 72.2016 88.2435 71.9155 88.4545 71.7045C88.6655 71.4935 88.9516 71.375 89.25 71.375C89.5484 71.375 89.8345 71.4935 90.0455 71.7045C90.2565 71.9155 90.375 72.2016 90.375 72.5Z" stroke="black" stroke-width="1.5" stroke-linecap="round" stroke-linejoin="round"/>
<path d="M84.25 68.5V55C84.25 52.0163 83.0647 49.1548 80.955 47.045C78.8452 44.9353 75.9837 43.75 73 43.75C70.0163 43.75 67.1548 44.9353 65.045 47.045C62.9353 49.1548 61.75 52.0163 61.75 55V68.5M95.818 62.521L99.607 98.521C99.817 100.516 98.257 102.25 96.25 102.25H49.75C49.2766 102.251 48.8084 102.151 48.3758 101.959C47.9433 101.767 47.5559 101.486 47.2391 101.134C46.9222 100.783 46.6828 100.368 46.5366 99.9179C46.3903 99.4677 46.3403 98.9918 46.39 98.521L50.182 62.521C50.2695 61.6917 50.6609 60.9241 51.2808 60.3663C51.9006 59.8084 52.7051 59.4998 53.539 59.5H92.461C94.189 59.5 95.638 60.805 95.818 62.521ZM62.875 68.5C62.875 68.7984 62.7565 69.0845 62.5455 69.2955C62.3345 69.5065 62.0484 69.625 61.75 69.625C61.4516 69.625 61.1655 69.5065 60.9545 69.2955C60.7435 69.0845 60.625 68.7984 60.625 68.5C60.625 68.2016 60.7435 67.9155 60.9545 67.7045C61.1655 67.4935 61.4516 67.375 61.75 67.375C62.0484 67.375 62.3345 67.4935 62.5455 67.7045C62.7565 67.9155 62.875 68.2016 62.875 68.5ZM85.375 68.5C85.375 68.7984 85.2565 69.0845 85.0455 69.2955C84.8345 69.5065 84.5484 69.625 84.25 69.625C83.9516 69.625 83.6655 69.5065 83.4545 69.2955C83.2435 69.0845 83.125 68.7984 83.125 68.5C83.125 68.2016 83.2435 67.9155 83.4545 67.7045C83.6655 67.4935 83.9516 67.375 84.25 67.375C84.5484 67.375 84.8345 67.4935 85.0455 67.7045C85.2565 67.9155 85.375 68.2016 85.375 68.5Z" stroke="#FF0000" stroke-width="1.5" stroke-linecap="round" stroke-linejoin="round"/>
</svg>
