<svg width="150" height="150" viewBox="0 0 150 150" fill="none" xmlns="http://www.w3.org/2000/svg">
<path d="M68 80.25L74.75 87L86 71.25M77 50.142C70.2072 56.5927 61.1608 60.1307 51.794 60C50.6025 63.6299 49.9969 67.4265 50 71.247C50 88.023 61.472 102.117 77 106.116C92.528 102.12 104 88.026 104 71.25C104 67.32 103.37 63.537 102.206 59.997H101.75C92.162 59.997 83.45 56.253 77 50.142Z" stroke="black" stroke-width="1.5" stroke-linecap="round" stroke-linejoin="round"/>
<path d="M66 74.25L72.75 81L84 65.25M75 44.142C68.2072 50.5927 59.1608 54.1307 49.794 54C48.6025 57.6299 47.9969 61.4265 48 65.247C48 82.023 59.472 96.117 75 100.116C90.528 96.12 102 82.026 102 65.25C102 61.32 101.37 57.537 100.206 53.997H99.75C90.162 53.997 81.45 50.253 75 44.142Z" stroke="#FF0000" stroke-width="1.5" stroke-linecap="round" stroke-linejoin="round"/>
</svg>
